<svg xmlns="http://www.w3.org/2000/svg" width="99" height="19" viewBox="0 0 99 19">
    <g fill="none" fill-rule="evenodd">
        <path fill="#000" fill-rule="nonzero"
              d="M41.8457031,9.91992188 C41.8457031,12.270194 41.1767645,14.0703062 39.8388672,15.3203125 C38.5009699,16.5703188 36.569023,17.1953125 34.0429688,17.1953125 L30,17.1953125 L30,2.91796875 L34.4824219,2.91796875 C36.8131627,2.91796875 38.6230404,3.53319697 39.9121094,4.76367188 C41.2011783,5.99414678 41.8457031,7.71287959 41.8457031,9.91992188 Z M38.7011719,9.99804688 C38.7011719,6.93162529 37.3470187,5.3984375 34.6386719,5.3984375 L33.0273438,5.3984375 L33.0273438,14.6953125 L34.3261719,14.6953125 C37.2428531,14.6953125 38.7011719,13.1295729 38.7011719,9.99804688 Z M49.0917969,8.19140625 C48.4602833,8.19140625 47.9654966,8.39159956 47.6074219,8.79199219 C47.2493472,9.19238481 47.0442711,9.76041299 46.9921875,10.4960938 L51.171875,10.4960938 C51.1588541,9.76041299 50.9667987,9.19238481 50.5957031,8.79199219 C50.2246075,8.39159956 49.7233104,8.19140625 49.0917969,8.19140625 Z M49.5117188,17.390625 C47.7538975,17.390625 46.3802133,16.9056038 45.390625,15.9355469 C44.4010367,14.9654899 43.90625,13.5918058 43.90625,11.8144531 C43.90625,9.98501689 44.3636022,8.57064302 45.2783203,7.57128906 C46.1930384,6.57193511 47.4576742,6.07226562 49.0722656,6.07226562 C50.6152421,6.07226562 51.816402,6.51171436 52.6757812,7.390625 C53.5351605,8.26953564 53.9648438,9.48371621 53.9648438,11.0332031 L53.9648438,12.4785156 L46.9238281,12.4785156 C46.9563804,13.324874 47.2070289,13.9856747 47.6757812,14.4609375 C48.1445336,14.9362003 48.8020791,15.1738281 49.6484375,15.1738281 C50.3059929,15.1738281 50.9277314,15.1054694 51.5136719,14.96875 C52.0996123,14.8320306 52.7115854,14.6139338 53.3496094,14.3144531 L53.3496094,16.6191406 C52.8287734,16.8795586 52.2721384,17.0732416 51.6796875,17.2001953 C51.0872366,17.3271491 50.3645876,17.390625 49.5117188,17.390625 Z M60.9082031,8.19140625 C60.2766896,8.19140625 59.7819028,8.39159956 59.4238281,8.79199219 C59.0657534,9.19238481 58.8606773,9.76041299 58.8085938,10.4960938 L62.9882812,10.4960938 C62.9752604,9.76041299 62.783205,9.19238481 62.4121094,8.79199219 C62.0410138,8.39159956 61.5397167,8.19140625 60.9082031,8.19140625 Z M61.328125,17.390625 C59.5703037,17.390625 58.1966195,16.9056038 57.2070312,15.9355469 C56.217443,14.9654899 55.7226562,13.5918058 55.7226562,11.8144531 C55.7226562,9.98501689 56.1800084,8.57064302 57.0947266,7.57128906 C58.0094447,6.57193511 59.2740805,6.07226562 60.8886719,6.07226562 C62.4316483,6.07226562 63.6328082,6.51171436 64.4921875,7.390625 C65.3515668,8.26953564 65.78125,9.48371621 65.78125,11.0332031 L65.78125,12.4785156 L58.7402344,12.4785156 C58.7727866,13.324874 59.0234352,13.9856747 59.4921875,14.4609375 C59.9609398,14.9362003 60.6184854,15.1738281 61.4648438,15.1738281 C62.1223991,15.1738281 62.7441377,15.1054694 63.3300781,14.96875 C63.9160186,14.8320306 64.5279916,14.6139338 65.1660156,14.3144531 L65.1660156,16.6191406 C64.6451797,16.8795586 64.0885446,17.0732416 63.4960938,17.2001953 C62.9036429,17.3271491 62.1809938,17.390625 61.328125,17.390625 Z M71.6601562,17.390625 C70.3775978,17.390625 69.3701208,16.8925831 68.6376953,15.8964844 C67.9052698,14.9003856 67.5390625,13.5201911 67.5390625,11.7558594 C67.5390625,9.96548584 67.9117801,8.57064302 68.6572266,7.57128906 C69.402673,6.57193511 70.429681,6.07226562 71.7382812,6.07226562 C73.111986,6.07226562 74.1601526,6.60611445 74.8828125,7.67382812 L74.9804688,7.67382812 C74.8307284,6.86002197 74.7558594,6.13411777 74.7558594,5.49609375 L74.7558594,2 L77.7441406,2 L77.7441406,17.1953125 L75.4589844,17.1953125 L74.8828125,15.7792969 L74.7558594,15.7792969 C74.0787727,16.853521 73.0468819,17.390625 71.6601562,17.390625 Z M72.7050781,15.0175781 C73.4668007,15.0175781 74.0250633,14.7962262 74.3798828,14.3535156 C74.7347023,13.9108051 74.9283853,13.1588595 74.9609375,12.0976562 L74.9609375,11.7753906 C74.9609375,10.6035098 74.7802752,9.76367441 74.4189453,9.25585938 C74.0576154,8.74804434 73.4700562,8.49414062 72.65625,8.49414062 C71.9921842,8.49414062 71.4762388,8.77571333 71.1083984,9.33886719 C70.7405581,9.90202104 70.5566406,10.7206978 70.5566406,11.7949219 C70.5566406,12.869146 70.7421856,13.674802 71.1132812,14.2119141 C71.4843769,14.7490261 72.0149705,15.0175781 72.7050781,15.0175781 Z M91.9101562,2.91796875 L91.9101562,12.15625 C91.9101562,13.2109428 91.674156,14.1354127 91.2021484,14.9296875 C90.7301409,15.7239623 90.0481815,16.3326802 89.15625,16.7558594 C88.2643185,17.1790386 87.2096415,17.390625 85.9921875,17.390625 C84.1562408,17.390625 82.7304738,16.9202521 81.7148438,15.9794922 C80.6992137,15.0387323 80.1914062,13.7513103 80.1914062,12.1171875 L80.1914062,2.91796875 L83.2089844,2.91796875 L83.2089844,11.6582031 C83.2089844,12.758469 83.4303363,13.5657526 83.8730469,14.0800781 C84.3157574,14.5944036 85.048172,14.8515625 86.0703125,14.8515625 C87.0599008,14.8515625 87.777667,14.592776 88.2236328,14.0751953 C88.6695986,13.5576146 88.8925781,12.7454482 88.8925781,11.6386719 L88.8925781,2.91796875 L91.9101562,2.91796875 Z M95.40625,17.1953125 L95.40625,2.91796875 L98.4335938,2.91796875 L98.4335938,17.1953125 L95.40625,17.1953125 Z"/>
        <rect width="11" height="9" fill="#95D2EC"/>
        <rect width="11" height="9" x="10" fill="#53535B"/>
        <rect width="11" height="10" y="9" fill="#FFC8C2"/>
        <rect width="11" height="10" x="10" y="9" fill="#FFF0EF"/>
    </g>
</svg>
